<mxfile host="65bd71144e">
    <diagram id="_ZcOz_xovBqN5Ijx0dev" name="Page-1">
        <mxGraphModel dx="3160" dy="1312" grid="1" gridSize="10" guides="1" tooltips="1" connect="1" arrows="1" fold="1" page="1" pageScale="1" pageWidth="850" pageHeight="1100" background="#ffffff" math="0" shadow="0">
            <root>
                <mxCell id="0"/>
                <mxCell id="1" parent="0"/>
                <mxCell id="3" value="Kmat_parse_emvars" style="whiteSpace=wrap;html=1;fillColor=#FFFFFF;strokeColor=#000000;strokeWidth=2;fontColor=#000000;" vertex="1" parent="1">
                    <mxGeometry x="50" y="70" width="120" height="60" as="geometry"/>
                </mxCell>
                <mxCell id="4" value="Kmatch_FlagOmitted" style="whiteSpace=wrap;html=1;strokeColor=#000000;strokeWidth=2;fontColor=#000000;fillColor=#FFFFFF;" vertex="1" parent="1">
                    <mxGeometry x="50" y="147" width="120" height="60" as="geometry"/>
                </mxCell>
                <mxCell id="7" value="KmatchSet" style="whiteSpace=wrap;html=1;strokeColor=#000000;strokeWidth=2;fontColor=#000000;fillColor=#FFFFFF;" vertex="1" parent="1">
                    <mxGeometry x="50" y="223" width="120" height="60" as="geometry"/>
                </mxCell>
                <mxCell id="8" value="KmatchchG" style="whiteSpace=wrap;html=1;strokeColor=#000000;strokeWidth=2;fontColor=#000000;fillColor=#FFFFFF;" vertex="1" parent="1">
                    <mxGeometry x="50" y="300" width="120" height="60" as="geometry"/>
                </mxCell>
                <mxCell id="10" value="Kmatch_i_PS_cvs" style="whiteSpace=wrap;html=1;strokeColor=#000000;strokeWidth=2;fontColor=#000000;fillColor=#FFFFFF;" vertex="1" parent="1">
                    <mxGeometry x="710" y="380" width="120" height="60" as="geometry"/>
                </mxCell>
                <mxCell id="11" value="Kmatch_i_PS" style="whiteSpace=wrap;html=1;strokeColor=#000000;strokeWidth=2;fontColor=#000000;fillColor=#FFFFFF;" vertex="1" parent="1">
                    <mxGeometry x="710" y="300" width="120" height="60" as="geometry"/>
                </mxCell>
                <mxCell id="12" value="Kmatch_WOR_MD" style="whiteSpace=wrap;html=1;strokeColor=#000000;strokeWidth=2;fontColor=#000000;fillColor=#FFFFFF;" vertex="1" parent="1">
                    <mxGeometry x="710" y="230" width="120" height="60" as="geometry"/>
                </mxCell>
                <mxCell id="13" value="Kmatch_WOR_PS" style="whiteSpace=wrap;html=1;strokeColor=#000000;strokeWidth=2;fontColor=#000000;fillColor=#FFFFFF;" vertex="1" parent="1">
                    <mxGeometry x="710" y="140" width="120" height="60" as="geometry"/>
                </mxCell>
                <mxCell id="14" value="Kmatch_WOR" style="whiteSpace=wrap;html=1;strokeColor=#000000;strokeWidth=2;fontColor=#000000;fillColor=#FFFFFF;" vertex="1" parent="1">
                    <mxGeometry x="700" y="60" width="120" height="60" as="geometry"/>
                </mxCell>
                <mxCell id="15" value="Kmatch_EM" style="whiteSpace=wrap;html=1;strokeColor=#000000;strokeWidth=2;fontColor=#000000;fillColor=#FFFFFF;" vertex="1" parent="1">
                    <mxGeometry x="560" y="370" width="120" height="60" as="geometry"/>
                </mxCell>
                <mxCell id="16" value="Kmatch_e" style="whiteSpace=wrap;html=1;strokeColor=#000000;strokeWidth=2;fontColor=#000000;fillColor=#FFFFFF;" vertex="1" parent="1">
                    <mxGeometry x="550" y="290" width="120" height="60" as="geometry"/>
                </mxCell>
                <mxCell id="17" value="Kmatch_e_index" style="whiteSpace=wrap;html=1;strokeColor=#000000;strokeWidth=2;fontColor=#000000;fillColor=#FFFFFF;" vertex="1" parent="1">
                    <mxGeometry x="560" y="210" width="120" height="60" as="geometry"/>
                </mxCell>
                <mxCell id="18" value="Kmatch_compress_update" style="whiteSpace=wrap;html=1;strokeColor=#000000;strokeWidth=2;fontColor=#000000;fillColor=#FFFFFF;" vertex="1" parent="1">
                    <mxGeometry x="560" y="130" width="120" height="60" as="geometry"/>
                </mxCell>
                <mxCell id="19" value="Kmatch_compress" style="whiteSpace=wrap;html=1;strokeColor=#000000;strokeWidth=2;fontColor=#000000;fillColor=#FFFFFF;" vertex="1" parent="1">
                    <mxGeometry x="560" y="50" width="120" height="60" as="geometry"/>
                </mxCell>
                <mxCell id="20" value="Kmatch_o_get_data" style="whiteSpace=wrap;html=1;strokeColor=#000000;strokeWidth=2;fontColor=#000000;fillColor=#FFFFFF;" vertex="1" parent="1">
                    <mxGeometry x="410" y="470" width="120" height="60" as="geometry"/>
                </mxCell>
                <mxCell id="21" value="Kmatch_o_sdPS" style="whiteSpace=wrap;html=1;strokeColor=#000000;strokeWidth=2;fontColor=#000000;fillColor=#FFFFFF;" vertex="1" parent="1">
                    <mxGeometry x="410" y="380" width="120" height="60" as="geometry"/>
                </mxCell>
                <mxCell id="22" value="Kmatch_o_store_mDXs" style="whiteSpace=wrap;html=1;strokeColor=#000000;strokeWidth=2;fontColor=#000000;fillColor=#FFFFFF;" vertex="1" parent="1">
                    <mxGeometry x="415" y="300" width="120" height="60" as="geometry"/>
                </mxCell>
                <mxCell id="23" value="Kmatch_o_store_mIDs" style="whiteSpace=wrap;html=1;strokeColor=#000000;strokeWidth=2;fontColor=#000000;fillColor=#FFFFFF;" vertex="1" parent="1">
                    <mxGeometry x="415" y="220" width="120" height="60" as="geometry"/>
                </mxCell>
                <mxCell id="24" value="Kmatch_o_store_mIDs" style="whiteSpace=wrap;html=1;strokeColor=#000000;strokeWidth=2;fontColor=#000000;fillColor=#FFFFFF;" vertex="1" parent="1">
                    <mxGeometry x="410" y="140" width="130" height="60" as="geometry"/>
                </mxCell>
                <mxCell id="25" value="Kmatch_o" style="whiteSpace=wrap;html=1;strokeColor=#000000;strokeWidth=2;fontColor=#000000;fillColor=#FFFFFF;" vertex="1" parent="1">
                    <mxGeometry x="410" y="60" width="120" height="60" as="geometry"/>
                </mxCell>
                <mxCell id="26" value="Kmatch_get_Vdiag" style="whiteSpace=wrap;html=1;strokeColor=#000000;strokeWidth=2;fontColor=#000000;fillColor=#FFFFFF;" vertex="1" parent="1">
                    <mxGeometry x="270" y="300" width="120" height="60" as="geometry"/>
                </mxCell>
                <mxCell id="27" value="Kmatch_o_index" style="whiteSpace=wrap;html=1;strokeColor=#000000;strokeWidth=2;fontColor=#000000;fillColor=#FFFFFF;" vertex="1" parent="1">
                    <mxGeometry x="260" y="140" width="120" height="60" as="geometry"/>
                </mxCell>
                <mxCell id="28" value="&amp;nbsp;Kmatch" style="whiteSpace=wrap;html=1;strokeColor=#000000;strokeWidth=2;fontColor=#000000;fillColor=#FFFFFF;" vertex="1" parent="1">
                    <mxGeometry x="260" y="60" width="120" height="60" as="geometry"/>
                </mxCell>
                <mxCell id="29" value="Kmatch_get_V" style="whiteSpace=wrap;html=1;strokeColor=#000000;strokeWidth=2;fontColor=#000000;fillColor=#FFFFFF;" vertex="1" parent="1">
                    <mxGeometry x="260" y="220" width="120" height="60" as="geometry"/>
                </mxCell>
                <mxCell id="38" value="Kmatch_mindist_i_PS" style="whiteSpace=wrap;html=1;strokeColor=#000000;strokeWidth=2;fontColor=#000000;fillColor=#FFFFFF;" vertex="1" parent="1">
                    <mxGeometry x="1020" y="290" width="120" height="60" as="geometry"/>
                </mxCell>
                <mxCell id="39" value="Kmatch__mindist_e" style="whiteSpace=wrap;html=1;strokeColor=#000000;strokeWidth=2;fontColor=#000000;fillColor=#FFFFFF;" vertex="1" parent="1">
                    <mxGeometry x="1020" y="220" width="120" height="60" as="geometry"/>
                </mxCell>
                <mxCell id="40" value="Kmatch_bw" style="whiteSpace=wrap;html=1;strokeColor=#000000;strokeWidth=2;fontColor=#000000;fillColor=#FFFFFF;" vertex="1" parent="1">
                    <mxGeometry x="1030" y="130" width="120" height="60" as="geometry"/>
                </mxCell>
                <mxCell id="41" value="Kmatch_Ridge" style="whiteSpace=wrap;html=1;strokeColor=#000000;strokeWidth=2;fontColor=#000000;fillColor=#FFFFFF;" vertex="1" parent="1">
                    <mxGeometry x="1020" y="50" width="120" height="60" as="geometry"/>
                </mxCell>
                <mxCell id="42" value="Kmatch_i_MD_nn" style="whiteSpace=wrap;html=1;strokeColor=#000000;strokeWidth=2;fontColor=#000000;fillColor=#FFFFFF;" vertex="1" parent="1">
                    <mxGeometry x="860" y="500" width="120" height="60" as="geometry"/>
                </mxCell>
                <mxCell id="43" value="Kmatch_i_MD_info" style="whiteSpace=wrap;html=1;strokeColor=#000000;strokeWidth=2;fontColor=#000000;fillColor=#FFFFFF;" vertex="1" parent="1">
                    <mxGeometry x="860" y="410" width="120" height="60" as="geometry"/>
                </mxCell>
                <mxCell id="44" value="Kmatch_i_MD_cvs" style="whiteSpace=wrap;html=1;strokeColor=#000000;strokeWidth=2;fontColor=#000000;fillColor=#FFFFFF;" vertex="1" parent="1">
                    <mxGeometry x="860" y="330" width="120" height="60" as="geometry"/>
                </mxCell>
                <mxCell id="45" value="Kmatch_i_MD" style="whiteSpace=wrap;html=1;strokeColor=#000000;strokeWidth=2;fontColor=#000000;fillColor=#FFFFFF;" vertex="1" parent="1">
                    <mxGeometry x="860" y="230" width="120" height="60" as="geometry"/>
                </mxCell>
                <mxCell id="46" value="Kmatch_i_PS_nn" style="whiteSpace=wrap;html=1;strokeColor=#000000;strokeWidth=2;fontColor=#000000;fillColor=#FFFFFF;" vertex="1" parent="1">
                    <mxGeometry x="880" y="140" width="120" height="60" as="geometry"/>
                </mxCell>
                <mxCell id="47" value="Kmatch_i_PS_info" style="whiteSpace=wrap;html=1;strokeColor=#000000;strokeWidth=2;fontColor=#000000;fillColor=#FFFFFF;" vertex="1" parent="1">
                    <mxGeometry x="870" y="60" width="120" height="60" as="geometry"/>
                </mxCell>
                <mxCell id="50" value="_Kmatch_selectindex" style="whiteSpace=wrap;html=1;strokeColor=#000000;strokeWidth=2;fontColor=#000000;fillColor=#FFFFFF;" vertex="1" parent="1">
                    <mxGeometry x="1320" y="530" width="120" height="60" as="geometry"/>
                </mxCell>
                <mxCell id="51" value="Kmatch_selectindex" style="whiteSpace=wrap;html=1;strokeColor=#000000;strokeWidth=2;fontColor=#000000;fillColor=#FFFFFF;" vertex="1" parent="1">
                    <mxGeometry x="1310" y="450" width="120" height="60" as="geometry"/>
                </mxCell>
                <mxCell id="52" value="Kmatch_MD2" style="whiteSpace=wrap;html=1;strokeColor=#000000;strokeWidth=2;fontColor=#000000;fillColor=#FFFFFF;" vertex="1" parent="1">
                    <mxGeometry x="1310" y="370" width="120" height="60" as="geometry"/>
                </mxCell>
                <mxCell id="53" value="Kmatch_MD_h2" style="whiteSpace=wrap;html=1;strokeColor=#000000;strokeWidth=2;fontColor=#000000;fillColor=#FFFFFF;" vertex="1" parent="1">
                    <mxGeometry x="1300" y="290" width="120" height="60" as="geometry"/>
                </mxCell>
                <mxCell id="54" value="Kmatch_cvo_Ridge" style="whiteSpace=wrap;html=1;strokeColor=#000000;strokeWidth=2;fontColor=#000000;fillColor=#FFFFFF;" vertex="1" parent="1">
                    <mxGeometry x="1300" y="210" width="120" height="60" as="geometry"/>
                </mxCell>
                <mxCell id="55" value="Kmatch_cvo_i_MD" style="whiteSpace=wrap;html=1;strokeColor=#000000;strokeWidth=2;fontColor=#000000;fillColor=#FFFFFF;" vertex="1" parent="1">
                    <mxGeometry x="1300" y="120" width="120" height="60" as="geometry"/>
                </mxCell>
                <mxCell id="56" value="Kmatch_cvo_i_PS" style="whiteSpace=wrap;html=1;strokeColor=#000000;strokeWidth=2;fontColor=#000000;fillColor=#FFFFFF;" vertex="1" parent="1">
                    <mxGeometry x="1300" y="50" width="120" height="60" as="geometry"/>
                </mxCell>
                <mxCell id="57" value="Kmatch_cvo_e" style="whiteSpace=wrap;html=1;strokeColor=#000000;strokeWidth=2;fontColor=#000000;fillColor=#FFFFFF;" vertex="1" parent="1">
                    <mxGeometry x="1160" y="630" width="120" height="60" as="geometry"/>
                </mxCell>
                <mxCell id="58" value="_Kmatch_cvo" style="whiteSpace=wrap;html=1;strokeColor=#000000;strokeWidth=2;fontColor=#000000;fillColor=#FFFFFF;" vertex="1" parent="1">
                    <mxGeometry x="1160" y="550" width="120" height="60" as="geometry"/>
                </mxCell>
                <mxCell id="59" value="Kmatch_cvo" style="whiteSpace=wrap;html=1;strokeColor=#000000;strokeWidth=2;fontColor=#000000;fillColor=#FFFFFF;" vertex="1" parent="1">
                    <mxGeometry x="1170" y="480" width="120" height="60" as="geometry"/>
                </mxCell>
                <mxCell id="60" value="Kmatch_cvo_compress" style="whiteSpace=wrap;html=1;strokeColor=#000000;strokeWidth=2;fontColor=#000000;fillColor=#FFFFFF;" vertex="1" parent="1">
                    <mxGeometry x="1170" y="400" width="120" height="60" as="geometry"/>
                </mxCell>
                <mxCell id="61" value="Kmatch_cvo_expand" style="whiteSpace=wrap;html=1;strokeColor=#000000;strokeWidth=2;fontColor=#000000;fillColor=#FFFFFF;" vertex="1" parent="1">
                    <mxGeometry x="1155" y="310" width="120" height="60" as="geometry"/>
                </mxCell>
                <mxCell id="62" value="_Kmatch_cvs" style="whiteSpace=wrap;html=1;strokeColor=#000000;strokeWidth=2;fontColor=#000000;fillColor=#FFFFFF;" vertex="1" parent="1">
                    <mxGeometry x="1155" y="210" width="120" height="60" as="geometry"/>
                </mxCell>
                <mxCell id="63" value="Kmatch_cvs" style="whiteSpace=wrap;html=1;strokeColor=#000000;strokeWidth=2;fontColor=#000000;fillColor=#FFFFFF;" vertex="1" parent="1">
                    <mxGeometry x="1170" y="120" width="120" height="60" as="geometry"/>
                </mxCell>
                <mxCell id="64" value="Kmatch_cv_grid" style="whiteSpace=wrap;html=1;strokeColor=#000000;strokeWidth=2;fontColor=#000000;fillColor=#FFFFFF;" vertex="1" parent="1">
                    <mxGeometry x="1160" y="40" width="120" height="60" as="geometry"/>
                </mxCell>
                <mxCell id="65" value="Kmatch_cv_search" style="whiteSpace=wrap;html=1;strokeColor=#000000;strokeWidth=2;fontColor=#000000;fillColor=#FFFFFF;" vertex="1" parent="1">
                    <mxGeometry x="1020" y="550" width="120" height="60" as="geometry"/>
                </mxCell>
                <mxCell id="66" value="Kmatch_cv" style="whiteSpace=wrap;html=1;strokeColor=#000000;strokeWidth=2;fontColor=#000000;fillColor=#FFFFFF;" vertex="1" parent="1">
                    <mxGeometry x="1010" y="470" width="120" height="60" as="geometry"/>
                </mxCell>
                <mxCell id="67" value="Kmatch_mindist_i_MD" style="whiteSpace=wrap;html=1;strokeColor=#000000;strokeWidth=2;fontColor=#000000;fillColor=#FFFFFF;" vertex="1" parent="1">
                    <mxGeometry x="1020" y="390" width="120" height="60" as="geometry"/>
                </mxCell>
                <mxCell id="68" value="Kmatch_Kdens" style="whiteSpace=wrap;html=1;strokeColor=#000000;strokeWidth=2;fontColor=#000000;fillColor=#FFFFFF;" vertex="1" parent="1">
                    <mxGeometry x="1610" y="570" width="120" height="60" as="geometry"/>
                </mxCell>
                <mxCell id="69" value="Kmatch_ebalance" style="whiteSpace=wrap;html=1;strokeColor=#000000;strokeWidth=2;fontColor=#000000;fillColor=#FFFFFF;" vertex="1" parent="1">
                    <mxGeometry x="1610" y="480" width="120" height="60" as="geometry"/>
                </mxCell>
                <mxCell id="70" value="Kmatch_svylbl_b_undo" style="whiteSpace=wrap;html=1;strokeColor=#000000;strokeWidth=2;fontColor=#000000;fillColor=#FFFFFF;" vertex="1" parent="1">
                    <mxGeometry x="1610" y="400" width="120" height="60" as="geometry"/>
                </mxCell>
                <mxCell id="71" value="Kmatch_flip_V" style="whiteSpace=wrap;html=1;strokeColor=#000000;strokeWidth=2;fontColor=#000000;fillColor=#FFFFFF;" vertex="1" parent="1">
                    <mxGeometry x="1610" y="310" width="120" height="60" as="geometry"/>
                </mxCell>
                <mxCell id="73" value="Kmatch_iscons" style="whiteSpace=wrap;html=1;strokeColor=#000000;strokeWidth=2;fontColor=#000000;fillColor=#FFFFFF;" vertex="1" parent="1">
                    <mxGeometry x="1620" y="210" width="120" height="60" as="geometry"/>
                </mxCell>
                <mxCell id="74" value="Kmatch_IF" style="whiteSpace=wrap;html=1;strokeColor=#000000;strokeWidth=2;fontColor=#000000;fillColor=#FFFFFF;" vertex="1" parent="1">
                    <mxGeometry x="1610" y="140" width="120" height="60" as="geometry"/>
                </mxCell>
                <mxCell id="75" value="Kmatch_parzen" style="whiteSpace=wrap;html=1;strokeColor=#000000;strokeWidth=2;fontColor=#000000;fillColor=#FFFFFF;" vertex="1" parent="1">
                    <mxGeometry x="1610" y="60" width="120" height="60" as="geometry"/>
                </mxCell>
                <mxCell id="76" value="Kmatch_cosine" style="whiteSpace=wrap;html=1;strokeColor=#000000;strokeWidth=2;fontColor=#000000;fillColor=#FFFFFF;" vertex="1" parent="1">
                    <mxGeometry x="1460" y="450" width="120" height="60" as="geometry"/>
                </mxCell>
                <mxCell id="77" value="Kmatch_triweight" style="whiteSpace=wrap;html=1;strokeColor=#000000;strokeWidth=2;fontColor=#000000;fillColor=#FFFFFF;" vertex="1" parent="1">
                    <mxGeometry x="1450" y="380" width="120" height="60" as="geometry"/>
                </mxCell>
                <mxCell id="78" value="Kmatch_biweight" style="whiteSpace=wrap;html=1;strokeColor=#000000;strokeWidth=2;fontColor=#000000;fillColor=#FFFFFF;" vertex="1" parent="1">
                    <mxGeometry x="1460" y="300" width="120" height="60" as="geometry"/>
                </mxCell>
                <mxCell id="79" value="Kmatch_triangle" style="whiteSpace=wrap;html=1;strokeColor=#000000;strokeWidth=2;fontColor=#000000;fillColor=#FFFFFF;" vertex="1" parent="1">
                    <mxGeometry x="1460" y="210" width="120" height="60" as="geometry"/>
                </mxCell>
                <mxCell id="80" value="Kmatch_reactangle" style="whiteSpace=wrap;html=1;strokeColor=#000000;strokeWidth=2;fontColor=#000000;fillColor=#FFFFFF;" vertex="1" parent="1">
                    <mxGeometry x="1450" y="140" width="120" height="60" as="geometry"/>
                </mxCell>
                <mxCell id="81" value="Kmatch_epan" style="whiteSpace=wrap;html=1;strokeColor=#000000;strokeWidth=2;fontColor=#000000;fillColor=#FFFFFF;" vertex="1" parent="1">
                    <mxGeometry x="1460" y="60" width="120" height="60" as="geometry"/>
                </mxCell>
                <mxCell id="82" value="kmatch, eclass prop(...)" style="whiteSpace=wrap;html=1;strokeColor=#3333FF;strokeWidth=2;fontColor=#000000;fillColor=#FFFFFF;" vertex="1" parent="1">
                    <mxGeometry x="-480" y="677" width="120" height="60" as="geometry"/>
                </mxCell>
                <mxCell id="84" value="Parse_metric_mspec" style="whiteSpace=wrap;html=1;strokeColor=#3333FF;strokeWidth=2;fontColor=#000000;fillColor=#FFFFFF;" vertex="1" parent="1">
                    <mxGeometry x="90" y="1455" width="120" height="60" as="geometry"/>
                </mxCell>
                <mxCell id="85" value="Parse_vce" style="whiteSpace=wrap;html=1;strokeColor=#3333FF;strokeWidth=2;fontColor=#000000;fillColor=#FFFFFF;" vertex="1" parent="1">
                    <mxGeometry x="90" y="1019" width="120" height="60" as="geometry"/>
                </mxCell>
                <mxCell id="86" value="Parse_eb_fitopts" style="whiteSpace=wrap;html=1;strokeColor=#3333FF;strokeWidth=2;fontColor=#000000;fillColor=#FFFFFF;" vertex="1" parent="1">
                    <mxGeometry x="90" y="932" width="120" height="60" as="geometry"/>
                </mxCell>
                <mxCell id="87" value="OptNotAllowed" style="whiteSpace=wrap;html=1;strokeColor=#3333FF;strokeWidth=2;fontColor=#000000;fillColor=#FFFFFF;" vertex="1" parent="1">
                    <mxGeometry x="90" y="845" width="120" height="60" as="geometry"/>
                </mxCell>
                <mxCell id="88" value="Return_clear, rclass" style="whiteSpace=wrap;html=1;strokeColor=#3333FF;strokeWidth=2;fontColor=#000000;fillColor=#FFFFFF;" vertex="1" parent="1">
                    <mxGeometry x="90" y="757" width="120" height="60" as="geometry"/>
                </mxCell>
                <mxCell id="89" value="Estimate, eclass sortpreserve" style="whiteSpace=wrap;html=1;strokeColor=#3333FF;strokeWidth=2;fontColor=#000000;fillColor=#FFFFFF;" vertex="1" parent="1">
                    <mxGeometry x="90" y="670" width="120" height="60" as="geometry"/>
                </mxCell>
                <mxCell id="90" value="_Postest_cvplot" style="whiteSpace=wrap;html=1;strokeColor=#3333FF;strokeWidth=2;fontColor=#000000;fillColor=#FFFFFF;" vertex="1" parent="1">
                    <mxGeometry x="-70" y="1123" width="120" height="60" as="geometry"/>
                </mxCell>
                <mxCell id="91" value="Postest_cvplot, rclass" style="whiteSpace=wrap;html=1;strokeColor=#3333FF;strokeWidth=2;fontColor=#000000;fillColor=#FFFFFF;" vertex="1" parent="1">
                    <mxGeometry x="-70" y="1035" width="120" height="60" as="geometry"/>
                </mxCell>
                <mxCell id="92" value="Postest_cbox" style="whiteSpace=wrap;html=1;strokeColor=#3333FF;strokeWidth=2;fontColor=#000000;fillColor=#FFFFFF;" vertex="1" parent="1">
                    <mxGeometry x="-70" y="947" width="120" height="60" as="geometry"/>
                </mxCell>
                <mxCell id="93" value="Postest_box" style="whiteSpace=wrap;html=1;strokeColor=#3333FF;strokeWidth=2;fontColor=#000000;fillColor=#FFFFFF;" vertex="1" parent="1">
                    <mxGeometry x="-70" y="859" width="120" height="60" as="geometry"/>
                </mxCell>
                <mxCell id="94" value="Postest_ccumul" style="whiteSpace=wrap;html=1;strokeColor=#3333FF;strokeWidth=2;fontColor=#000000;fillColor=#FFFFFF;" vertex="1" parent="1">
                    <mxGeometry x="-70" y="771" width="120" height="60" as="geometry"/>
                </mxCell>
                <mxCell id="95" value="Postest_cumul" style="whiteSpace=wrap;html=1;strokeColor=#3333FF;strokeWidth=2;fontColor=#000000;fillColor=#FFFFFF;" vertex="1" parent="1">
                    <mxGeometry x="-70" y="683" width="120" height="60" as="geometry"/>
                </mxCell>
                <mxCell id="96" value="Postest_cdensity" style="whiteSpace=wrap;html=1;strokeColor=#3333FF;strokeWidth=2;fontColor=#000000;fillColor=#FFFFFF;" vertex="1" parent="1">
                    <mxGeometry x="-260" y="1510" width="120" height="60" as="geometry"/>
                </mxCell>
                <mxCell id="97" value="Kdens_parse_bw" style="whiteSpace=wrap;html=1;strokeColor=#3333FF;strokeWidth=2;fontColor=#000000;fillColor=#FFFFFF;" vertex="1" parent="1">
                    <mxGeometry x="-260" y="1419" width="120" height="60" as="geometry"/>
                </mxCell>
                <mxCell id="98" value="Kdens, rclass" style="whiteSpace=wrap;html=1;strokeColor=#3333FF;strokeWidth=2;fontColor=#000000;fillColor=#FFFFFF;" vertex="1" parent="1">
                    <mxGeometry x="-260" y="1328" width="120" height="60" as="geometry"/>
                </mxCell>
                <mxCell id="99" value="Postest_graph, rclass" style="whiteSpace=wrap;html=1;strokeColor=#3333FF;strokeWidth=2;fontColor=#000000;fillColor=#FFFFFF;" vertex="1" parent="1">
                    <mxGeometry x="-260" y="1237" width="120" height="60" as="geometry"/>
                </mxCell>
                <mxCell id="100" value="Postest_csummarize, rclass" style="whiteSpace=wrap;html=1;strokeColor=#3333FF;strokeWidth=2;fontColor=#000000;fillColor=#FFFFFF;" vertex="1" parent="1">
                    <mxGeometry x="-260" y="1146" width="120" height="60" as="geometry"/>
                </mxCell>
                <mxCell id="101" value="_Postest_refstat" style="whiteSpace=wrap;html=1;strokeColor=#3333FF;strokeWidth=2;fontColor=#000000;fillColor=#FFFFFF;" vertex="1" parent="1">
                    <mxGeometry x="-260" y="1054" width="120" height="60" as="geometry"/>
                </mxCell>
                <mxCell id="102" value="Postest_summarize, rclass" style="whiteSpace=wrap;html=1;strokeColor=#3333FF;strokeWidth=2;fontColor=#000000;fillColor=#FFFFFF;" vertex="1" parent="1">
                    <mxGeometry x="-260" y="963" width="120" height="60" as="geometry"/>
                </mxCell>
                <mxCell id="103" value="Refit_with_generate_subpop" style="whiteSpace=wrap;html=1;strokeColor=#3333FF;strokeWidth=2;fontColor=#000000;fillColor=#FFFFFF;" vertex="1" parent="1">
                    <mxGeometry x="-260" y="872" width="120" height="60" as="geometry"/>
                </mxCell>
                <mxCell id="104" value="Refit_with_generate" style="whiteSpace=wrap;html=1;strokeColor=#3333FF;strokeWidth=2;fontColor=#000000;fillColor=#FFFFFF;" vertex="1" parent="1">
                    <mxGeometry x="-260" y="781" width="120" height="60" as="geometry"/>
                </mxCell>
                <mxCell id="105" value="Posttest" style="whiteSpace=wrap;html=1;strokeColor=#3333FF;strokeWidth=2;fontColor=#000000;fillColor=#FFFFFF;" vertex="1" parent="1">
                    <mxGeometry x="-260" y="690" width="120" height="60" as="geometry"/>
                </mxCell>
                <mxCell id="106" value="Display" style="whiteSpace=wrap;html=1;strokeColor=#3333FF;strokeWidth=2;fontColor=#000000;fillColor=#FFFFFF;" vertex="1" parent="1">
                    <mxGeometry x="-480" y="1344" width="120" height="60" as="geometry"/>
                </mxCell>
                <mxCell id="107" value="SVY_Estimate, eclass" style="whiteSpace=wrap;html=1;strokeColor=#3333FF;strokeWidth=2;fontColor=#000000;fillColor=#FFFFFF;" vertex="1" parent="1">
                    <mxGeometry x="-480" y="1249" width="120" height="60" as="geometry"/>
                </mxCell>
                <mxCell id="108" value="Parse_generate_notallowed" style="whiteSpace=wrap;html=1;strokeColor=#3333FF;strokeWidth=2;fontColor=#000000;fillColor=#FFFFFF;" vertex="1" parent="1">
                    <mxGeometry x="-480" y="1154" width="120" height="60" as="geometry"/>
                </mxCell>
                <mxCell id="109" value="Parse_vceopt_jack" style="whiteSpace=wrap;html=1;strokeColor=#3333FF;strokeWidth=2;fontColor=#000000;fillColor=#FFFFFF;" vertex="1" parent="1">
                    <mxGeometry x="-480" y="1058" width="120" height="60" as="geometry"/>
                </mxCell>
                <mxCell id="110" value="Parse_vceprefix" style="whiteSpace=wrap;html=1;strokeColor=#3333FF;strokeWidth=2;fontColor=#000000;fillColor=#FFFFFF;" vertex="1" parent="1">
                    <mxGeometry x="-480" y="963" width="120" height="60" as="geometry"/>
                </mxCell>
                <mxCell id="111" value="VCE_Estimate, eclass" style="whiteSpace=wrap;html=1;strokeColor=#3333FF;strokeWidth=2;fontColor=#000000;fillColor=#FFFFFF;" vertex="1" parent="1">
                    <mxGeometry x="-480" y="868" width="120" height="60" as="geometry"/>
                </mxCell>
                <mxCell id="112" value="Parse_svy_or_vceprefix" style="whiteSpace=wrap;html=1;strokeColor=#3333FF;strokeWidth=2;fontColor=#000000;fillColor=#FFFFFF;" vertex="1" parent="1">
                    <mxGeometry x="-480" y="772" width="120" height="60" as="geometry"/>
                </mxCell>
                <mxCell id="115" value="Parse_metric" style="whiteSpace=wrap;html=1;strokeColor=#3333FF;strokeWidth=2;fontColor=#000000;fillColor=#FFFFFF;" vertex="1" parent="1">
                    <mxGeometry x="90" y="1368" width="120" height="60" as="geometry"/>
                </mxCell>
                <mxCell id="116" value="Coarsen" style="whiteSpace=wrap;html=1;strokeColor=#3333FF;strokeWidth=2;fontColor=#000000;fillColor=#FFFFFF;" vertex="1" parent="1">
                    <mxGeometry x="90" y="1281" width="120" height="60" as="geometry"/>
                </mxCell>
                <mxCell id="117" value="Parse_bw_cv" style="whiteSpace=wrap;html=1;strokeColor=#3333FF;strokeWidth=2;fontColor=#000000;fillColor=#FFFFFF;" vertex="1" parent="1">
                    <mxGeometry x="90" y="1194" width="120" height="60" as="geometry"/>
                </mxCell>
                <mxCell id="118" value="Parse_bw_pm" style="whiteSpace=wrap;html=1;strokeColor=#3333FF;strokeWidth=2;fontColor=#000000;fillColor=#FFFFFF;" vertex="1" parent="1">
                    <mxGeometry x="-70" y="1650" width="120" height="60" as="geometry"/>
                </mxCell>
                <mxCell id="119" value="Parse_bw_pm" style="whiteSpace=wrap;html=1;strokeColor=#3333FF;strokeWidth=2;fontColor=#000000;fillColor=#FFFFFF;" vertex="1" parent="1">
                    <mxGeometry x="-70" y="1562" width="120" height="60" as="geometry"/>
                </mxCell>
                <mxCell id="120" value="Parse_ematch" style="whiteSpace=wrap;html=1;strokeColor=#3333FF;strokeWidth=2;fontColor=#000000;fillColor=#FFFFFF;" vertex="1" parent="1">
                    <mxGeometry x="-70" y="1474" width="120" height="60" as="geometry"/>
                </mxCell>
                <mxCell id="121" value="Parse_generate_checkvars" style="whiteSpace=wrap;html=1;strokeColor=#3333FF;strokeWidth=2;fontColor=#000000;fillColor=#FFFFFF;" vertex="1" parent="1">
                    <mxGeometry x="-70" y="1386" width="120" height="60" as="geometry"/>
                </mxCell>
                <mxCell id="122" value="Parse_generate_prefix" style="whiteSpace=wrap;html=1;strokeColor=#3333FF;strokeWidth=2;fontColor=#000000;fillColor=#FFFFFF;" vertex="1" parent="1">
                    <mxGeometry x="-70" y="1298" width="120" height="60" as="geometry"/>
                </mxCell>
                <mxCell id="123" value="Parse_generate_prefix0" style="whiteSpace=wrap;html=1;strokeColor=#3333FF;strokeWidth=2;fontColor=#000000;fillColor=#FFFFFF;" vertex="1" parent="1">
                    <mxGeometry x="-70" y="1210" width="120" height="60" as="geometry"/>
                </mxCell>
                <mxCell id="124" value="Parse_eq" style="whiteSpace=wrap;html=1;strokeColor=#3333FF;strokeWidth=2;fontColor=#000000;fillColor=#FFFFFF;" vertex="1" parent="1">
                    <mxGeometry x="90" y="1106" width="120" height="60" as="geometry"/>
                </mxCell>
                <mxCell id="127" value="Estimate_teefect, rclass" style="whiteSpace=wrap;html=1;strokeColor=#3333FF;strokeWidth=2;fontColor=#000000;fillColor=#FFFFFF;" vertex="1" parent="1">
                    <mxGeometry x="-480" y="1630" width="120" height="60" as="geometry"/>
                </mxCell>
                <mxCell id="128" value="Count_obs_i" style="whiteSpace=wrap;html=1;strokeColor=#3333FF;strokeWidth=2;fontColor=#000000;fillColor=#FFFFFF;" vertex="1" parent="1">
                    <mxGeometry x="-480" y="1535" width="120" height="60" as="geometry"/>
                </mxCell>
                <mxCell id="129" value="Count_obs, rclass" style="whiteSpace=wrap;html=1;strokeColor=#3333FF;strokeWidth=2;fontColor=#000000;fillColor=#FFFFFF;" vertex="1" parent="1">
                    <mxGeometry x="-480" y="1439" width="120" height="60" as="geometry"/>
                </mxCell>
                <mxCell id="130" value="Fillin_nc_nm" style="whiteSpace=wrap;html=1;strokeColor=#3333FF;strokeWidth=2;fontColor=#000000;fillColor=#FFFFFF;" vertex="1" parent="1">
                    <mxGeometry x="90" y="1630" width="120" height="60" as="geometry"/>
                </mxCell>
                <mxCell id="131" value="Parse_kernel" style="whiteSpace=wrap;html=1;strokeColor=#3333FF;strokeWidth=2;fontColor=#000000;fillColor=#FFFFFF;" vertex="1" parent="1">
                    <mxGeometry x="90" y="1543" width="120" height="60" as="geometry"/>
                </mxCell>
            </root>
        </mxGraphModel>
    </diagram>
</mxfile>